<svg width="711" height="182" viewBox="0 0 711 182" fill="none" xmlns="http://www.w3.org/2000/svg">
<path d="M682.3 44.623C672.466 44.623 662.632 39.7987 662.632 30.1501C662.632 20.6801 672.466 15.6771 682.3 15.6771C691.955 15.6771 701.968 20.6801 701.968 30.1501C701.968 39.7987 691.955 44.623 682.3 44.623ZM693.385 138.965H673.718C671.393 138.965 670.142 137.714 670.142 135.392V58.3813C687.485 61.9548 696.961 73.9263 696.961 92.3302V135.392C696.961 137.714 695.71 138.965 693.385 138.965Z" fill="url(#paint0_linear_424_1986)"/>
<path d="M624.541 58.3819C645.639 58.3819 654.221 72.8548 654.221 94.2963V135.392C654.221 137.715 652.969 138.966 650.645 138.966H630.977C628.653 138.966 627.401 137.715 627.401 135.392V94.2963C627.401 85.005 623.825 80.002 615.422 80.002C607.019 80.002 600.403 88.9359 600.403 99.6566V135.392C600.403 137.715 599.151 138.966 596.827 138.966H577.16C574.835 138.966 573.584 137.715 573.584 135.392V4.95703C590.927 8.53061 600.403 20.5021 600.403 38.9059V69.728C605.767 63.0275 614.17 58.3819 624.541 58.3819Z" fill="url(#paint1_linear_424_1986)"/>
<path d="M481.616 31.9343C479.859 32.1098 476.171 32.837 473.963 33.4387C467.239 35.3193 461.217 38.7544 456.124 43.6187C451.909 47.6305 449.425 50.84 447.016 55.3533C443.026 62.8754 441.22 70.9242 441.22 81.2797C441.22 90.4567 442.55 97.8284 445.51 105.3C451.683 120.771 465.432 132.029 482.544 135.565C484.576 135.991 489.945 136.818 490.698 136.818C490.799 136.818 490.899 146.798 490.899 159.009V181.199H502.691V159.009C502.691 146.196 502.792 136.818 502.917 136.818C503.043 136.818 504.749 136.593 506.731 136.342C526.527 133.684 539.574 124.708 547.954 108.008C552.32 99.3328 554.127 91.4847 554.127 81.2797C554.127 63.1011 547.779 49.135 534.958 39.1807C529.965 35.2942 524.821 32.9623 519.1 31.9845C516.692 31.5833 510.369 31.8089 508.211 32.3856C504.272 33.4387 501.035 35.4447 497.799 38.8046C494.763 41.9639 493.082 44.9978 492.254 48.8842C491.049 54.4005 491.075 53.7486 490.924 93.2399L490.773 130.55L487.763 129.522C484.3 128.343 481.515 126.989 478.856 125.209C476.221 123.454 471.755 118.89 469.823 116.007C464.153 107.532 461.292 95.7222 461.292 80.8032C461.292 58.5126 467.364 44.0951 479.257 38.0523C480.336 37.5007 482.092 36.7736 483.121 36.4225L485.003 35.7957L485.153 31.7588L483.823 31.8089C483.096 31.8089 482.092 31.8842 481.616 31.9343ZM515.814 44.9476C519.452 45.8754 522.889 48.2072 525.724 51.6674C531.42 58.5878 534.681 66.8622 536.112 77.8947C536.538 81.2546 536.538 91.9862 536.112 95.1956C534.38 108.259 529.714 117.236 521.584 123.203C517.269 126.388 510.369 129.221 504.573 130.174C504.021 130.249 503.369 130.374 503.143 130.449C502.716 130.575 502.691 128.87 502.691 96.9006C502.716 62.7501 502.867 54.8769 503.544 52.2441C504.423 48.9595 506.329 46.4521 508.838 45.2736C510.093 44.6718 510.67 44.5465 512.326 44.5465C513.405 44.5465 514.986 44.722 515.814 44.9476Z" fill="url(#paint2_linear_424_1986)"/>
<path d="M481.616 35.183C479.859 35.3585 476.171 36.0857 473.963 36.6874C467.239 38.568 461.217 42.0031 456.124 46.8674C451.909 50.8792 449.425 54.0887 447.016 58.602C443.026 66.1241 441.22 74.1729 441.22 84.5284C441.22 93.7054 442.55 101.077 445.51 108.549C451.683 124.02 465.432 135.278 482.544 138.813C484.576 139.239 489.945 140.067 490.698 140.067C490.799 140.067 490.899 150.046 490.899 162.257V181.199H502.691V162.257C502.691 149.445 502.792 140.067 502.917 140.067C503.043 140.067 504.749 139.841 506.731 139.591C526.527 136.933 539.574 127.956 547.954 111.257C552.32 102.582 554.127 94.7334 554.127 84.5284C554.127 66.3498 547.779 52.3837 534.958 42.4294C529.965 38.5429 524.821 36.211 519.1 35.2332C516.692 34.832 510.369 35.0576 508.211 35.6343C504.272 36.6874 501.035 38.6933 497.799 42.0532C494.763 45.2126 493.082 48.2465 492.254 52.1329C491.049 57.6492 491.075 56.9973 490.924 96.4886L490.773 133.798L487.763 132.77C484.3 131.592 481.515 130.238 478.856 128.458C476.221 126.703 471.755 122.139 469.823 119.256C464.153 110.781 461.292 98.9709 461.292 84.0519C461.292 61.7613 467.364 47.3438 479.257 41.301C480.336 40.7494 482.092 40.0223 483.121 39.6712L485.003 39.0444L485.153 35.0075L483.823 35.0576C483.096 35.0576 482.092 35.1329 481.616 35.183ZM515.814 48.1963C519.452 49.1241 522.889 51.4559 525.724 54.9161C531.42 61.8365 534.681 70.1109 536.112 81.1434C536.538 84.5033 536.538 95.2349 536.112 98.4443C534.38 111.508 529.714 120.484 521.584 126.452C517.269 129.636 510.369 132.47 504.573 133.422C504.021 133.498 503.369 133.623 503.143 133.698C502.716 133.824 502.691 132.119 502.691 100.149C502.716 65.9988 502.867 58.1256 503.544 55.4928C504.423 52.2081 506.329 49.7008 508.838 48.5223C510.093 47.9205 510.67 47.7952 512.326 47.7952C513.405 47.7952 514.986 47.9707 515.814 48.1963Z" fill="url(#paint3_linear_424_1986)"/>
<path d="M399.489 64.7392C403.869 56.0733 411.379 51.249 421.749 50.1769V133.62C411.379 132.548 403.869 126.651 399.489 117.896C392.516 127.723 381.43 133.62 367.931 133.62C344.688 133.62 328.596 116.288 328.596 91.2729C328.596 66.4366 344.688 49.1048 367.931 49.1048C381.43 49.1048 392.516 55.0012 399.489 64.7392ZM376.156 112.178C387.063 112.178 394.93 103.602 394.93 91.4516C394.93 79.3015 387.063 70.7249 376.156 70.7249C365.249 70.7249 357.382 79.3015 357.382 91.4516C357.382 103.602 365.249 112.178 376.156 112.178Z" fill="url(#paint4_linear_424_1986)"/>
<path d="M306.108 55.2114H317.73C320.054 55.2114 321.306 56.4621 321.306 58.785V72.3645C321.306 74.6873 320.054 75.9381 317.73 75.9381H306.108V130.435C306.108 132.758 304.857 134.009 302.532 134.009H282.865C280.54 134.009 279.289 132.758 279.289 130.435V75.9381H267.846C265.522 75.9381 264.27 74.6873 264.27 72.3645V58.785C264.27 56.4621 265.522 55.2114 267.846 55.2114H279.289C279.289 36.8075 288.765 24.8361 306.108 21.2625V55.2114Z" fill="url(#paint5_linear_424_1986)"/>
<path d="M213.378 49.1048C237.337 49.1048 257.004 63.5778 257.004 89.6648V92.8811C257.004 95.2039 255.753 96.4546 253.428 96.4546H195.856C196.571 107.354 202.829 114.501 212.842 114.501C220.709 114.501 225.894 110.928 228.039 106.103C228.933 104.138 230.006 103.066 231.973 103.066H251.819C254.322 103.066 255.753 104.674 254.859 107.175C248.601 125.043 233.046 133.62 213.378 133.62C186.201 133.62 167.428 117.539 167.428 91.4516C167.428 65.7219 186.916 49.1048 213.378 49.1048ZM196.214 81.9817H228.576C228.039 73.4051 221.96 67.33 212.484 67.33C202.561 67.33 197.733 73.4051 196.214 81.9817Z" fill="url(#paint6_linear_424_1986)"/>
<path d="M132.945 12.2966L161.146 132.384C161.683 134.707 160.399 134.009 157.896 134.009H136.765C135.205 134.009 133.514 130.76 132.766 127.544L117.569 54.5541L104.159 97.5263C96.1132 123.435 87.8886 131.118 75.7304 134.334L50.5202 54.4648L41.938 95.5608C36.5741 121.827 22.8068 134.334 6 134.334L35.1437 12.2966C35.6801 10.3312 36.9317 9.25911 39.0773 9.25911H57.4932C59.46 9.25911 60.8904 10.3312 61.4268 12.2966L83.8656 85.1974L106.662 12.2966C107.199 10.3312 108.629 9.25911 110.596 9.25911H129.012C131.157 9.25911 132.409 10.3312 132.945 12.2966Z" fill="url(#paint7_linear_424_1986)"/>
<defs>
<linearGradient id="paint0_linear_424_1986" x1="447.765" y1="82.6136" x2="608.764" y2="217.317" gradientUnits="userSpaceOnUse">
<stop offset="0.0576923" stop-color="#2D7FE0"/>
<stop offset="0.230769" stop-color="#4264E4"/>
<stop offset="0.475962" stop-color="#4D59E6"/>
<stop offset="0.985577" stop-color="#7D2AE7"/>
</linearGradient>
<linearGradient id="paint1_linear_424_1986" x1="447.765" y1="82.6136" x2="608.764" y2="217.317" gradientUnits="userSpaceOnUse">
<stop offset="0.0576923" stop-color="#2D7FE0"/>
<stop offset="0.230769" stop-color="#4264E4"/>
<stop offset="0.475962" stop-color="#4D59E6"/>
<stop offset="0.985577" stop-color="#7D2AE7"/>
</linearGradient>
<linearGradient id="paint2_linear_424_1986" x1="447.765" y1="82.6136" x2="608.764" y2="217.317" gradientUnits="userSpaceOnUse">
<stop offset="0.0576923" stop-color="#2D7FE0"/>
<stop offset="0.230769" stop-color="#4264E4"/>
<stop offset="0.475962" stop-color="#4D59E6"/>
<stop offset="0.985577" stop-color="#7D2AE7"/>
</linearGradient>
<linearGradient id="paint3_linear_424_1986" x1="447.765" y1="82.6136" x2="608.764" y2="217.317" gradientUnits="userSpaceOnUse">
<stop offset="0.0576923" stop-color="#2D7FE0"/>
<stop offset="0.230769" stop-color="#4264E4"/>
<stop offset="0.475962" stop-color="#4D59E6"/>
<stop offset="0.985577" stop-color="#7D2AE7"/>
</linearGradient>
<linearGradient id="paint4_linear_424_1986" x1="31.6102" y1="46.2635" x2="481.708" y2="393.418" gradientUnits="userSpaceOnUse">
<stop stop-color="#07B9CE"/>
<stop offset="0.504808" stop-color="#2A84DE"/>
<stop offset="0.966346" stop-color="#3969E7"/>
</linearGradient>
<linearGradient id="paint5_linear_424_1986" x1="31.6102" y1="46.2635" x2="481.708" y2="393.418" gradientUnits="userSpaceOnUse">
<stop stop-color="#07B9CE"/>
<stop offset="0.504808" stop-color="#2A84DE"/>
<stop offset="0.966346" stop-color="#3969E7"/>
</linearGradient>
<linearGradient id="paint6_linear_424_1986" x1="31.6102" y1="46.2635" x2="481.708" y2="393.418" gradientUnits="userSpaceOnUse">
<stop stop-color="#07B9CE"/>
<stop offset="0.504808" stop-color="#2A84DE"/>
<stop offset="0.966346" stop-color="#3969E7"/>
</linearGradient>
<linearGradient id="paint7_linear_424_1986" x1="31.6102" y1="46.2635" x2="481.708" y2="393.418" gradientUnits="userSpaceOnUse">
<stop stop-color="#07B9CE"/>
<stop offset="0.504808" stop-color="#2A84DE"/>
<stop offset="0.966346" stop-color="#3969E7"/>
</linearGradient>
</defs>
</svg>
